<svg xmlns="http://www.w3.org/2000/svg" width="1280" height="520" viewBox="0 0 1280 520"><defs><linearGradient id="bg" x1="0" x2="1"><stop stop-color="#07130f"/><stop offset="1" stop-color="#0b1f2a"/></linearGradient><filter id="glow"><feGaussianBlur stdDeviation="7" result="b"/><feMerge><feMergeNode in="b"/><feMergeNode in="SourceGraphic"/></feMerge></filter></defs><rect width="1280" height="520" rx="32" fill="url(#bg)"/><text x="60" y="68" fill="#ecfdf5" font-family="Inter,Arial" font-size="38" font-weight="800">SafeCrossAI</text><text x="60" y="104" fill="#6ee7b7" font-family="Inter,Arial" font-size="20">Interpretable trajectory prediction and conflict-risk reasoning</text><text x="60" y="140" fill="#94a3b8" font-family="Inter,Arial" font-size="16">From observed road-user motion to early, explainable intersection warnings.</text><g transform="translate(110 185)"><rect x="0" y="0" width="1060" height="250" rx="26" fill="#0f172a" stroke="#1f2937"/><rect x="430" y="0" width="200" height="250" fill="#1f2937"/><rect x="0" y="80" width="1060" height="90" fill="#1f2937"/><g stroke="#f8fafc" stroke-width="4" stroke-dasharray="24 20" opacity=".7"><line x1="0" y1="125" x2="430" y2="125"/><line x1="630" y1="125" x2="1060" y2="125"/><line x1="530" y1="0" x2="530" y2="80"/><line x1="530" y1="170" x2="530" y2="250"/></g><g stroke="#fde68a" stroke-width="5"><line x1="430" y1="80" x2="630" y2="80"/><line x1="430" y1="170" x2="630" y2="170"/></g><rect x="448" y="88" width="164" height="74" fill="none" stroke="#f59e0b" stroke-width="3" stroke-dasharray="8 8"/><text x="530" y="130" text-anchor="middle" fill="#fcd34d" font-family="Inter,Arial" font-size="14" font-weight="700">CONFLICT ZONE</text><circle cx="270" cy="125" r="16" fill="#22d3ee" filter="url(#glow)"/><circle cx="530" cy="220" r="16" fill="#f472b6" filter="url(#glow)"/><rect x="760" y="108" width="38" height="28" rx="6" fill="#60a5fa" filter="url(#glow)"/><path d="M286 125 C370 125 430 125 500 125" stroke="#67e8f9" stroke-width="4" fill="none" stroke-dasharray="9 8"/><path d="M530 204 C530 180 530 160 530 142" stroke="#f9a8d4" stroke-width="4" fill="none" stroke-dasharray="9 8"/><path d="M760 122 C690 122 630 122 560 125" stroke="#93c5fd" stroke-width="4" fill="none" stroke-dasharray="9 8"/><circle cx="530" cy="125" r="28" fill="none" stroke="#fb7185" stroke-width="5" filter="url(#glow)"/><text x="160" y="42" fill="#67e8f9" font-family="Inter,Arial" font-size="15" font-weight="700">CYCLIST</text><text x="506" y="242" fill="#f9a8d4" font-family="Inter,Arial" font-size="15" font-weight="700">PEDESTRIAN</text><text x="812" y="128" fill="#93c5fd" font-family="Inter,Arial" font-size="15" font-weight="700">VEHICLE</text></g><g font-family="Inter,Arial"><rect x="180" y="458" width="210" height="36" rx="18" fill="#083344" stroke="#22d3ee"/><text x="285" y="481" text-anchor="middle" fill="#a5f3fc" font-size="14" font-weight="700">forecast trajectories</text><rect x="420" y="458" width="210" height="36" rx="18" fill="#3b2f08" stroke="#f59e0b"/><text x="525" y="481" text-anchor="middle" fill="#fde68a" font-size="14" font-weight="700">TTC + CPA reasoning</text><rect x="660" y="458" width="210" height="36" rx="18" fill="#3f1724" stroke="#fb7185"/><text x="765" y="481" text-anchor="middle" fill="#fecdd3" font-size="14" font-weight="700">interpretable risk</text><rect x="900" y="458" width="210" height="36" rx="18" fill="#064e3b" stroke="#34d399"/><text x="1005" y="481" text-anchor="middle" fill="#a7f3d0" font-size="14" font-weight="700">early warning</text></g></svg>